<?xml version="1.0" encoding="UTF-8"?>
<svg width="39px" height="41px" viewBox="0 0 39 41" version="1.1" xmlns="http://www.w3.org/2000/svg" xmlns:xlink="http://www.w3.org/1999/xlink">
    <!-- Generator: sketchtool 41.1 (35376) - http://www.bohemiancoding.com/sketch -->
    <title>0D0ACB32-2D2E-4FB1-913C-2B5E2F84190E</title>
    <desc>Created with sketchtool.</desc>
    <defs></defs>
    <g id="Symbols" stroke="none" stroke-width="1" fill="none" fill-rule="evenodd" stroke-linecap="round" opacity="0.8" stroke-linejoin="round">
        <g id="Features/Features-#7" transform="translate(-171.000000, -376.000000)" stroke="#000000">
            <g id="Chat-Icon" transform="translate(171.000000, 376.000000)">
                <polygon id="Stroke-78" points="27.5689655 36.2166667 32.9482759 40.3166667 38.3275862 36.2166667 38.3275862 12.9833333 32.9482759 8.88333333 27.5689655 12.9833333"></polygon>
                <polyline id="Stroke-80" points="27.5689655 12.9833333 32.9482759 17.0833333 38.3275862 12.9833333"></polyline>
                <path d="M32.9482759,17.0833333 L32.9482759,40.3166667" id="Stroke-83"></path>
                <polygon id="Stroke-71" points="0.672413793 36.2166667 6.05172414 40.3166667 11.4310345 36.2166667 11.4310345 19.8166667 6.05172414 15.7166667 0.672413793 19.8166667"></polygon>
                <polyline id="Stroke-72" points="0.672413793 19.8166667 6.05172414 23.9166667 11.4310345 19.8166667"></polyline>
                <path d="M6.05172414,23.9166667 L6.05172414,39.6333333" id="Stroke-73"></path>
                <polygon id="Stroke-74" points="14.1206897 36.2166667 19.5 40.3166667 24.8793103 36.2166667 24.8793103 4.78333333 19.5 0.683333333 14.1206897 4.78333333"></polygon>
                <polyline id="Stroke-76" points="14.1206897 4.78333333 19.5 8.88333333 24.8793103 4.78333333"></polyline>
                <path d="M19.5,8.88333333 L19.5,40.3166667" id="Stroke-77"></path>
            </g>
        </g>
    </g>
</svg>