<?xml version="1.0" encoding="UTF-8"?>
<svg width="23px" height="15px" viewBox="0 0 23 15" version="1.1" xmlns="http://www.w3.org/2000/svg" xmlns:xlink="http://www.w3.org/1999/xlink">
    <!-- Generator: sketchtool 41.1 (35376) - http://www.bohemiancoding.com/sketch -->
    <title>982265EA-F293-4120-9553-AE2192E2C397</title>
    <desc>Created with sketchtool.</desc>
    <defs></defs>
    <g id="Symbols" stroke="none" stroke-width="1" fill="none" fill-rule="evenodd" stroke-linecap="round" stroke-linejoin="round">
        <g id="Logged-In" transform="translate(-14.000000, -121.000000)" stroke="#FFFFFF">
            <g id="Cash-Header">
                <g id="Cash-Icon" transform="translate(15.000000, 121.361257)">
                    <polygon id="Stroke-1" points="0.362068966 13.7641223 20.637931 13.7641223 20.637931 0.372003307 0.362068966 0.372003307"></polygon>
                    <path d="M8.32758621,8.84891706 C8.39927586,9.72386883 9.34210345,10.416539 10.4985517,10.416539 C11.6984483,10.416539 12.6724138,9.66509231 12.6724138,8.74252411 C12.6724138,7.37801598 10.8816207,7.14886195 10.5021724,7.06850923 C10.122,6.98890052 8.32758621,6.75825847 8.32758621,5.39375034 C8.32758621,4.46895012 9.30155172,3.71973546 10.5021724,3.71973546 C11.6578966,3.71973546 12.6007241,4.41240562 12.6724138,5.28661339" id="Stroke-3"></path>
                    <path d="M10.5,3.34802976 L10.5,10.7880959" id="Stroke-4"></path>
                    <path d="M17.0172414,2.60402315 L18.4655172,2.60402315" id="Stroke-5"></path>
                    <path d="M2.53448276,11.5321025 L3.98275862,11.5321025" id="Stroke-6"></path>
                </g>
            </g>
        </g>
    </g>
</svg>