<?xml version="1.0" encoding="UTF-8"?>
<svg width="42px" height="35px" viewBox="0 0 42 35" version="1.1" xmlns="http://www.w3.org/2000/svg" xmlns:xlink="http://www.w3.org/1999/xlink">
    <!-- Generator: sketchtool 41.1 (35376) - http://www.bohemiancoding.com/sketch -->
    <title>94688C6C-4663-478F-B58E-56ECA20369F5</title>
    <desc>Created with sketchtool.</desc>
    <defs></defs>
    <g id="Symbols" stroke="none" stroke-width="1" fill="none" fill-rule="evenodd" stroke-linecap="round" opacity="0.8" stroke-linejoin="round">
        <g id="Features/Features-#7" transform="translate(-171.000000, -574.000000)" stroke="#000000">
            <g id="Coin-Icon" transform="translate(171.000000, 574.000000)">
                <path d="M17.5,3.5 C17.5,4.9504 13.9328,6.3 9.1,6.3 C4.2672,6.3 0.7,4.9504 0.7,3.5 C0.7,2.0496 4.2672,0.7 9.1,0.7 C13.9328,0.7 17.5,2.0496 17.5,3.5 L17.5,3.5 Z" id="Stroke-340"></path>
                <path d="M17.5,5.6 L17.5,9.1 C17.5,10.5504 13.9328,11.9 9.1,11.9 C4.2672,11.9 0.7,10.5504 0.7,9.1 L0.7,5.6" id="Stroke-342"></path>
                <path d="M17.5,3.5 L17.5,6.3 C17.5,7.7504 13.9328,9.1 9.1,9.1 C4.2672,9.1 0.7,7.7504 0.7,6.3 L0.7,3.5" id="Stroke-344"></path>
                <path d="M17.5,7 L17.5,11.9 C17.5,13.3504 13.9328,14.7 9.1,14.7 C4.2672,14.7 0.7,13.3504 0.7,11.9 L0.7,7" id="Stroke-346"></path>
                <path d="M41.3,23.1 C41.3,24.5504 36.3328,25.9 31.5,25.9 C26.6672,25.9 21.7,23.8504 21.7,22.4 C21.7,20.9496 26.6672,20.3 31.5,20.3 C36.3328,20.3 41.3,21.6496 41.3,23.1 L41.3,23.1 Z" id="Stroke-348"></path>
                <path d="M41.3,23.1 L41.3,25.9 C41.3,27.3504 36.3328,28.7 31.5,28.7 C26.6672,28.7 21.7,27.3504 21.7,25.9 L21.7,22.4" id="Stroke-350"></path>
                <path d="M41.3,25.9 L41.3,28.7 C41.3,30.1504 36.3328,31.5 31.5,31.5 C26.6672,31.5 21.7,30.1504 21.7,28.7 L21.7,25.9" id="Stroke-352"></path>
                <path d="M41.3,28 L41.3,31.5 C41.3,32.9504 36.3328,34.3 31.5,34.3 C26.6672,34.3 21.7,32.9504 21.7,31.5 L21.7,28" id="Stroke-354"></path>
                <path d="M17.5,11.9 L17.5,17.5 C17.5,18.9504 13.9328,20.3 9.1,20.3 C4.2672,20.3 0.7,18.9504 0.7,17.5 L0.7,12.075" id="Stroke-356"></path>
                <path d="M17.5,13.3 L17.5,14.7 C17.5,16.1504 13.9328,17.5 9.1,17.5 C4.2672,17.5 0.7,16.1504 0.7,14.7 L0.7,13.3" id="Stroke-358"></path>
                <path d="M0.7,17.5 L0.7,14.875" id="Stroke-360"></path>
                <path d="M17.5,14.7 L17.5,17.5" id="Stroke-362"></path>
                <path d="M17.5,17.5 L17.5,20.3 C17.5,21.7504 13.9328,23.1 9.1,23.1 C4.2672,23.1 0.7,21.7504 0.7,20.3 L0.7,17.5" id="Stroke-364"></path>
                <path d="M17.5,20.3 L17.5,23.1 C17.5,24.5504 13.9328,25.9 9.1,25.9 C4.2672,25.9 0.7,24.5504 0.7,23.1 L0.7,20.3" id="Stroke-366"></path>
                <path d="M17.5,23.1 L17.5,25.9 C17.5,27.3504 13.9328,28.7 9.1,28.7 C4.2672,28.7 0.7,27.3504 0.7,25.9 L0.7,23.1" id="Stroke-368"></path>
                <path d="M17.5,25.9 L17.5,28 C17.5,29.4504 13.9328,31.5 9.1,31.5 C4.2672,31.5 0.7,29.6254 0.7,28.175 L0.7,25.9" id="Stroke-370"></path>
            </g>
        </g>
    </g>
</svg>