<?xml version="1.0" encoding="UTF-8"?>
<svg width="23px" height="16px" viewBox="0 0 23 16" version="1.1" xmlns="http://www.w3.org/2000/svg" xmlns:xlink="http://www.w3.org/1999/xlink">
    <!-- Generator: sketchtool 41.1 (35376) - http://www.bohemiancoding.com/sketch -->
    <title>720997C0-D271-41D0-BD29-2C636E5287E4</title>
    <desc>Created with sketchtool.</desc>
    <defs></defs>
    <g id="Symbols" stroke="none" stroke-width="1" fill="none" fill-rule="evenodd" stroke-linecap="round" stroke-linejoin="round">
        <g id="Logged-In" transform="translate(-16.000000, -611.000000)" stroke="#FFFFFF">
            <g id="Credit-Cards-Header" transform="translate(0.000000, 598.000000)">
                <g id="Credit-Card-Icon" transform="translate(17.000000, 14.000000)">
                    <path d="M18.9,13.65 L2.1,13.65 C1.1333,13.65 0.35,12.8667 0.35,11.9 L0.35,2.1 C0.35,1.1333 1.1333,0.35 2.1,0.35 L18.9,0.35 C19.8667,0.35 20.65,1.1333 20.65,2.1 L20.65,11.9 C20.65,12.8667 19.8667,13.65 18.9,13.65 L18.9,13.65 Z" id="Stroke-417"></path>
                    <path d="M3.15,7.81666667 L6.65,7.81666667" id="Stroke-419"></path>
                    <path d="M3.15,9.91666667 L10.85,9.91666667" id="Stroke-421"></path>
                    <path d="M3.15,5.71666667 L4.55,5.71666667" id="Stroke-423"></path>
                    <path d="M6.65,5.71666667 L8.05,5.71666667" id="Stroke-425"></path>
                    <path d="M10.15,5.71666667 L11.55,5.71666667" id="Stroke-427"></path>
                    <path d="M17.85,8.51666667 C17.85,9.29016667 17.2228,9.91666667 16.45,9.91666667 C15.6772,9.91666667 15.05,9.29016667 15.05,8.51666667 C15.05,7.74386667 15.6772,7.11666667 16.45,7.11666667 C17.2228,7.11666667 17.85,7.74386667 17.85,8.51666667 L17.85,8.51666667 Z" id="Stroke-429"></path>
                    <path d="M15.70695,9.75328667 C15.51095,9.85758667 15.28695,9.91638667 15.04965,9.91638667 C14.27685,9.91638667 13.64965,9.28988667 13.64965,8.51638667 C13.64965,7.74358667 14.27685,7.11638667 15.04965,7.11638667 C15.29465,7.11638667 15.52425,7.17938667 15.72445,7.28928667" id="Stroke-431"></path>
                </g>
            </g>
        </g>
    </g>
</svg>