<?xml version="1.0" encoding="UTF-8"?>
<svg width="28px" height="38px" viewBox="0 0 28 38" version="1.1" xmlns="http://www.w3.org/2000/svg" xmlns:xlink="http://www.w3.org/1999/xlink">
    <!-- Generator: sketchtool 41.1 (35376) - http://www.bohemiancoding.com/sketch -->
    <title>D915B10B-2755-437A-AEDB-C32CD631E89C</title>
    <desc>Created with sketchtool.</desc>
    <defs></defs>
    <g id="Symbols" stroke="none" stroke-width="1" fill="none" fill-rule="evenodd" stroke-linecap="round" opacity="0.8" stroke-linejoin="round">
        <g id="Features/Features-#7" transform="translate(-177.000000, -754.000000)" stroke="#000000">
            <g id="finger-print-icon" transform="translate(177.000000, 754.000000)">
                <path d="M21,33.5666667 C16.3558182,29.8325333 11.5423636,25.4511333 10.192,20.6808667 C9.71218182,18.9860667 10.6756364,17.2165333 12.3454545,16.7288667 C14.014,16.2412 15.7563636,17.2190667 16.2361818,18.9164 C17.1410909,22.1134667 22.4190909,26.5708667 24.8181818,28.5" id="Stroke-82"></path>
                <path d="M27.3636364,21.5333333 C27.3636364,21.5333333 22.4509091,17.4052667 22.2727273,17.1 C20.7798182,12.1118667 15.5985455,9.23906667 10.6438182,10.6754667 C8.21927273,11.3835333 6.21345455,13.0061333 4.99290909,15.2468667 C3.77363636,17.4863333 3.45163636,19.9867333 4.14781818,22.4466 C5.32890909,26.6177333 2.80127273,29.0801333 0.636363636,29.7666667" id="Stroke-84"></path>
                <path d="M26.0909091,25.3333333 C20.1192727,20.5326667 19.5427273,19.0430667 19.2576364,18.0335333 C18.298,14.6426667 14.8132727,12.6882 11.4761818,13.6584667 C8.13781818,14.6338 6.42472727,18.1184 7.17054545,21.5637333 C8.75890909,28.9154667 7.112,31.6856667 3.18181818,32.9333333" id="Stroke-86"></path>
                <path d="M23.5454545,31.0333333 C22.1047273,29.5690667 14.7203636,25.1218 13.2134545,19.798" id="Stroke-88"></path>
                <path d="M18.4545455,36.1 C17.6514545,35.2842667 16.0630909,32.3 14,32.3 C11.9369091,32.3 12.0909091,37.3666667 12.0909091,37.3666667" id="Stroke-90"></path>
                <path d="M9.54545455,27.2333333 C10.2989091,29.6286 8.88618182,35.2678 6.36363636,36.1" id="Stroke-92"></path>
                <path d="M27.3636364,17.1 C23.7274545,15.9017333 23.6294545,6.96666667 13.2134545,6.96666667 C6.26690909,6.96666667 0.636363636,12.6869333 0.636363636,19.7435333" id="Stroke-94"></path>
                <path d="M0.636363636,23.4333333 C0.636363636,24.2313333 1.27272727,25.3333333 1.27272727,25.3333333" id="Stroke-96"></path>
                <path d="M1.38498182,7.95796 C2.21989091,6.56082667 5.85607273,3.16616 12.3902545,3.16616 C18.9244364,3.16616 23.3471636,6.56082667 24.1820727,7.95796" id="Stroke-98"></path>
                <path d="M5.35296364,2.23047333 C7.25314545,1.36534 7.58023636,0.633206667 12.4280545,0.633206667 C17.5864182,0.633206667 18.9787818,1.49834 21.0749636,2.23047333" id="Stroke-100"></path>
                <path d="M25.7914364,10.21592 C25.7914364,10.21592 26.9699818,12.0525867 27.3632545,13.3002533" id="Stroke-102"></path>
            </g>
        </g>
    </g>
</svg>