<svg xmlns="http://www.w3.org/2000/svg" width="69" height="45" viewBox="0 0 69 45">
    <g fill="none" fill-rule="evenodd" stroke="#45A8E5" stroke-linecap="round" stroke-linejoin="round">
        <path d="M43.842 34.5c0 5.385-4.288 9.75-9.579 9.75-5.29 0-9.579-4.365-9.579-9.75s4.289-9.75 9.58-9.75c5.29 0 9.578 4.365 9.578 9.75z"/>
        <path d="M34.263 29.25l1.11 3.477h3.591l-2.906 2.148 1.11 3.477-2.905-2.15-2.904 2.15 1.11-3.477-2.907-2.148h3.591zM8 17.613l1.888 5.917H16l-4.945 3.655 1.888 5.917L8 29.444l-4.943 3.658 1.888-5.917L0 23.53h6.112zM61 17.613l1.888 5.917H69l-4.945 3.655 1.888 5.917L61 29.444l-4.943 3.658 1.888-5.917L53 23.53h6.112zM34.263 17.25l2.21 4.5 11.79-7.5L42.368.75"/>
        <path d="M42.368.75H27.632l-5.895 13.5 10.316 7.5zM35 .75L27.632 18"/>
    </g>
</svg>
