<?xml version="1.0" encoding="UTF-8"?>
<svg width="69px" height="45px" viewBox="0 0 69 45" version="1.1" xmlns="http://www.w3.org/2000/svg" xmlns:xlink="http://www.w3.org/1999/xlink">
    <!-- Generator: sketchtool 41.2 (35397) - http://www.bohemiancoding.com/sketch -->
    <title>D46D4A44-AA2A-4337-A41B-C2869744EF79</title>
    <desc>Created with sketchtool.</desc>
    <defs></defs>
    <g id="Connect" stroke="none" stroke-width="1" fill="none" fill-rule="evenodd" stroke-linecap="round" stroke-linejoin="round">
        <g id="Connect-5.0---Submitted" transform="translate(-1181.000000, -718.000000)" stroke="#45A8E5">
            <g id="Group-11" transform="translate(328.000000, 688.000000)">
                <g id="Group-10" transform="translate(837.000000, 0.000000)">
                    <g id="Goal-Icon" transform="translate(16.000000, 30.000000)">
                        <path d="M43.8421053,34.5 C43.8421053,39.885 39.5536842,44.25 34.2631579,44.25 C28.9726316,44.25 24.6842105,39.885 24.6842105,34.5 C24.6842105,29.115 28.9726316,24.75 34.2631579,24.75 C39.5536842,24.75 43.8421053,29.115 43.8421053,34.5 L43.8421053,34.5 Z" id="Stroke-471"></path>
                        <polygon id="Stroke-473" points="34.2631579 29.25 35.3728421 32.727 38.9642105 32.727 36.0581053 34.875 37.1677895 38.352 34.2631579 36.2025 31.3585263 38.352 32.4682105 34.875 29.5621053 32.727 33.1534737 32.727"></polygon>
                        <polygon id="Stroke-473" points="8 17.6127031 9.88840125 23.5296758 16 23.5296758 11.0545455 27.1850273 12.9429467 33.102 8 29.4440958 3.05705329 33.102 4.94545455 27.1850273 0 23.5296758 6.11159875 23.5296758"></polygon>
                        <polygon id="Stroke-473" points="61 17.6127031 62.8884013 23.5296758 69 23.5296758 64.0545455 27.1850273 65.9429467 33.102 61 29.4440958 56.0570533 33.102 57.9454545 27.1850273 53 23.5296758 59.1115987 23.5296758"></polygon>
                        <polyline id="Stroke-468" points="34.2631579 17.25 36.4736842 21.75 48.2631579 14.25 42.3684211 0.75"></polyline>
                        <polygon id="Stroke-469" points="42.3684211 0.75 27.6315789 0.75 21.7368421 14.25 32.0526316 21.75"></polygon>
                        <path d="M35,0.75 L27.6315789,18" id="Stroke-470"></path>
                    </g>
                </g>
            </g>
        </g>
    </g>
</svg>