<?xml version="1.0" encoding="UTF-8"?>
<svg width="15px" height="16px" viewBox="0 0 15 16" version="1.1" xmlns="http://www.w3.org/2000/svg" xmlns:xlink="http://www.w3.org/1999/xlink">
    <!-- Generator: sketchtool 41.1 (35376) - http://www.bohemiancoding.com/sketch -->
    <title>18A9DECB-AFCB-4042-864C-B9CDCA5F8ADF</title>
    <desc>Created with sketchtool.</desc>
    <defs></defs>
    <g id="Symbols" stroke="none" stroke-width="1" fill="none" fill-rule="evenodd">
        <g id="Logged-In" transform="translate(-20.000000, -352.000000)" fill="#FFFFFF">
            <g id="Assets" transform="translate(0.000000, 338.000000)">
                <g id="asset-icon" transform="translate(20.000000, 14.000000)">
                    <path d="M14.8250239,7.14303139 L7.85354067,0.173632287 C7.65165072,-0.0281973094 7.32452153,-0.0281973094 7.12263158,0.173632287 L4.75758373,2.53797309 L4.75758373,2.12290583 C4.75758373,1.83756054 4.52626794,1.6063139 4.24090909,1.6063139 L2.68665072,1.6063139 C2.4012201,1.6063139 2.16961722,1.83756054 2.16961722,2.12290583 L2.16961722,5.12509417 L0.151363636,7.14303139 C-0.0504545455,7.34457399 -0.0504545455,7.67160538 0.151363636,7.87343498 C0.353253589,8.07519283 0.680382775,8.07519283 0.882272727,7.87343498 L7.48822967,1.26945291 L14.0941866,7.87343498 C14.1950957,7.9743139 14.3274402,8.02475336 14.4594976,8.02475336 C14.5917703,8.02475336 14.7241148,7.9743139 14.8250239,7.87343498 C15.0266268,7.67160538 15.0266268,7.34457399 14.8250239,7.14303139 Z M3.20332536,2.63942601 L3.72423445,2.63942601 L3.72423445,3.57101345 L3.20332536,4.09176682 L3.20332536,2.63942601 Z" id="Fill-1"></path>
                    <path d="M7.85354067,2.7235157 C7.65165072,2.5216861 7.32452153,2.5216861 7.12263158,2.7235157 L1.37483254,8.46959641 C1.27787081,8.56624215 1.2234689,8.6976861 1.2234689,8.83472646 L1.2234689,15.4115157 C1.2234689,15.696861 1.45478469,15.9283946 1.74043062,15.9283946 L5.95299043,15.9283946 C6.23842105,15.9283946 6.46973684,15.696861 6.46973684,15.4115157 L6.46973684,12.2072108 L8.50672249,12.2072108 L8.50672249,15.4115157 C8.50672249,15.696861 8.73803828,15.9283946 9.0234689,15.9283946 L13.2360287,15.9283946 C13.5213876,15.9283946 13.7527033,15.696861 13.7527033,15.4115157 L13.7527033,8.83472646 C13.7527033,8.6976861 13.6983014,8.56624215 13.6013397,8.46959641 L7.85354067,2.7235157 Z M12.7193541,14.8949955 L9.54014354,14.8949955 L9.54014354,11.6906906 C9.54014354,11.405417 9.30882775,11.1741704 9.0234689,11.1741704 L5.95299043,11.1741704 C5.6673445,11.1741704 5.43602871,11.405417 5.43602871,11.6906906 L5.43602871,14.8949955 L2.25710526,14.8949955 L2.25710526,9.04860987 L7.48822967,3.81933632 L12.7193541,9.04860987 L12.7193541,14.8949955 Z" id="Fill-3"></path>
                </g>
            </g>
        </g>
    </g>
</svg>