<svg xmlns="http://www.w3.org/2000/svg" width="15" height="21" viewBox="0 0 15 21">
    <g fill="#FFF" fill-rule="evenodd">
        <path d="M11.662 12.401c1.677 0 3.04-1.344 3.041-2.996v-2.46a.542.542 0 0 0-.546-.536h-2.495c-1.677 0-3.041 1.344-3.041 2.996v1.921h-.8V5.993h1.95c1.677 0 3.042-1.344 3.042-2.997V.537A.541.541 0 0 0 12.267 0H9.771c-1.677 0-3.04 1.344-3.04 2.996V9.277h-.649V7.356c0-.8-.316-1.553-.89-2.119a3.044 3.044 0 0 0-2.15-.878H.545a.55.55 0 0 0-.386.157.533.533 0 0 0-.16.38v2.46c0 1.652 1.365 2.996 3.041 2.996h3.69v3.117H1.036a.542.542 0 0 0-.545.538v6.37c0 .297.244.538.545.538h12.478c.301 0 .545-.24.545-.537v-6.371a.541.541 0 0 0-.545-.538H7.82v-1.068h3.84zm-8.62-3.124c-1.076 0-1.95-.862-1.95-1.922V5.434h1.95c.52 0 1.01.2 1.378.563.368.363.571.845.571 1.359v1.921h-1.95zm8.524 5.267l1.403 1.414v2.469l-1.403 1.413h-8.58l-1.403-1.413v-2.47l1.403-1.413h8.58zM9.77 4.918h-1.95V2.996c0-1.06.875-1.921 1.95-1.921h1.95v1.921c0 1.06-.874 1.922-1.95 1.922zm1.89 6.408H9.713V9.405c0-1.06.875-1.922 1.95-1.922h1.95v1.922c0 1.06-.875 1.921-1.95 1.921z"/>
        <path d="M8.915 19.401c1.134 0 2.057-.908 2.057-2.024s-.923-2.024-2.057-2.024c-1.135 0-2.058.908-2.058 2.024S7.78 19.4 8.915 19.4zm0-3.027c.563 0 1.02.45 1.02 1.003 0 .553-.457 1.003-1.02 1.003s-1.02-.45-1.02-1.003c0-.553.457-1.003 1.02-1.003z"/>
    </g>
</svg>
