<?xml version="1.0" encoding="UTF-8"?>
<svg width="23px" height="16px" viewBox="0 0 23 16" version="1.1" xmlns="http://www.w3.org/2000/svg" xmlns:xlink="http://www.w3.org/1999/xlink">
    <!-- Generator: sketchtool 41.1 (35376) - http://www.bohemiancoding.com/sketch -->
    <title>78D02A51-E4AC-4D18-BA7F-0F7A371539FF</title>
    <desc>Created with sketchtool.</desc>
    <defs></defs>
    <g id="Symbols" stroke="none" stroke-width="1" fill="none" fill-rule="evenodd" stroke-linecap="round" stroke-linejoin="round">
        <g id="Logged-In" transform="translate(-18.000000, -843.000000)" stroke="#FFFFFF">
            <g id="Credit-Cards-Header" transform="translate(0.000000, 829.000000)">
                <g id="Loans-Icon" transform="translate(19.000000, 15.000000)">
                    <path d="M3.85,8.75 C4.3295,7.7903 5.5776,7.35 6.65,7.35 L9.1,4.9 C9.3387,4.6991 9.8,4.5941 10.15,4.9 L10.2585,5.0239 C10.6029,5.3676 10.7702,5.8954 10.5,6.3 L9.1,8.05 C8.8676,8.3685 8.4,8.7059 8.4,9.1 L8.4,9.45 C8.4,10.5154 9.7958,11.0005 10.85,10.85 L12.6,10.8654 L15.05,10.85 L11.9,12.95 C11.4499,13.3994 9.3611,13.825 8.75,13.65 L3.15,12.6 L3.85,8.75 L3.85,8.75 Z" id="Stroke-373"></path>
                    <path d="M0.35,13.65 C1.4434,13.65 3.15,12.6 3.15,12.6 C3.15,12.6 3.6533,10.3005 3.85,8.05 C3.157,7.3941 0.35,7.3654 0.35,7.3654 L0.35,13.65 L0.35,13.65 Z" id="Stroke-375"></path>
                    <path d="M12.25,5.83037 C12.2962,6.28817 12.9045,6.65007 13.6486,6.65007 C14.4221,6.65007 15.05,6.25737 15.05,5.77507 C15.05,5.06177 13.8957,4.94207 13.6514,4.90007 C13.4064,4.85807 12.25,4.73837 12.25,4.02507 C12.25,3.54137 12.8779,3.15007 13.6514,3.15007 C14.3955,3.15007 15.0038,3.51197 15.05,3.96907" id="Stroke-377"></path>
                    <path d="M13.65,2.45 L13.65,7.35" id="Stroke-379"></path>
                    <path d="M17.15,1.75 L18.55,1.75" id="Stroke-381"></path>
                    <polyline id="Stroke-383" points="6.65 4.55 6.65 0.35 20.65 0.35 20.65 9.45 10.85 9.45"></polyline>
                </g>
            </g>
        </g>
    </g>
</svg>