<?xml version="1.0" encoding="UTF-8"?>
<svg fill="#E9E9E9" width="100pt" height="100pt" version="1.1" viewBox="0 0 100 100" xmlns="http://www.w3.org/2000/svg">
 <path d="m49.906 13c-0.10938 0.015625-0.21484 0.046875-0.3125 0.09375l-42 18c-0.35938 0.16016-0.58984 0.51562-0.59375 0.90625v6c0 0.55078 0.44922 1 1 1h14v30h-7-0.09375c-0.51562 0.046875-0.91016 0.48047-0.90625 1v6h-6c-0.55078 0-1 0.44922-1 1v9c0 0.55078 0.44922 1 1 1h84c0.55078 0 1-0.44922 1-1v-9c0-0.55078-0.44922-1-1-1h-6v-6c0-0.55078-0.44922-1-1-1h-7v-30h14c0.55078 0 1-0.44922 1-1v-6c-0.003906-0.39062-0.23438-0.74609-0.59375-0.90625l-42-18c-0.15625-0.074219-0.32812-0.10547-0.5-0.09375zm0.09375 2.0938l41 17.562v4.3438h-82v-4.3438zm-26 23.906h6v30h-6zm8 0h13v30h-13zm15 0h6v30h-6zm8 0h13v30h-13zm15 0h6v30h-6zm-54 32h68v6c0 0.55078 0.44922 1 1 1h6v7h-82v-7h6c0.55078 0 1-0.44922 1-1z"/>
</svg>
