<?xml version="1.0" encoding="UTF-8"?>
<svg width="100pt" height="100pt" version="1.1" viewBox="0 0 100 100" xmlns="http://www.w3.org/2000/svg">
 <g>
  <path d="m87.859 25.25h-70.723c-3.0508 0-5.5859 2.207-6.1133 5.1055-2.8984 0.52734-5.1055 3.0625-5.1055 6.1133v37.93c0 3.4297 2.7891 6.2188 6.2188 6.2188h70.723c3.0469 0 5.5859-2.207 6.1133-5.1055 2.8984-0.52734 5.1055-3.0664 5.1055-6.1133v-37.93c0-3.4297-2.7891-6.2188-6.2188-6.2188zm-75.723 7.5h70.723c2.0508 0 3.7188 1.668 3.7188 3.7188v2.7266h-78.16v-2.7266c0-2.0508 1.6719-3.7188 3.7188-3.7188zm74.441 8.9453v3.3086h-78.16v-3.3086zm-3.7188 36.422h-70.723c-2.0508 0-3.7188-1.668-3.7188-3.7188v-26.895h78.16v26.895c0 2.0508-1.668 3.7188-3.7188 3.7188zm8.7188-8.7188c0 1.6211-1.0508 2.9883-2.5 3.4961v-36.426c0-3.4297-2.7891-6.2188-6.2188-6.2188h-69.219c0.50781-1.4492 1.875-2.5 3.4961-2.5h70.723c2.0508 0 3.7188 1.668 3.7188 3.7188z"/>
  <path d="m13.445 56.992h12.613v2.5h-12.613z"/>
  <path d="m31.684 56.992h12.613v2.5h-12.613z"/>
  <path d="m49.918 56.992h12.613v2.5h-12.613z"/>
  <path d="m68.156 56.992h12.613v2.5h-12.613z"/>
  <path d="m75.75 64.465c-1.1758 0-2.3125 0.34375-3.2969 0.97656-0.98047-0.63672-2.1211-0.97656-3.2969-0.97656-3.3711 0-6.1133 2.7422-6.1133 6.1133s2.7422 6.1133 6.1133 6.1133c1.1758 0 2.3125-0.34375 3.2969-0.97656 0.98047 0.63672 2.1211 0.97656 3.2969 0.97656 3.3711 0 6.1133-2.7422 6.1133-6.1133s-2.7422-6.1133-6.1133-6.1133zm0 9.7266c-0.89844 0-1.7695-0.34766-2.4453-0.97266l-0.85156-0.78516-0.85156 0.78516c-0.67578 0.62891-1.5469 0.97266-2.4453 0.97266-1.9922 0-3.6133-1.6211-3.6133-3.6133s1.6211-3.6133 3.6133-3.6133c0.89844 0 1.7695 0.34766 2.4453 0.97266l0.85156 0.78516 0.85156-0.78516c0.67969-0.62891 1.5469-0.97266 2.4453-0.97266 1.9922 0 3.6133 1.6211 3.6133 3.6133s-1.6211 3.6133-3.6133 3.6133z"/>
  <path d="m12.195 74.34h19.133v-7.5781h-19.133zm2.5-5.0781h14.133v2.5781h-14.133z"/>
 </g>
</svg>
