<?xml version="1.0" encoding="UTF-8"?>
<svg fill="#E9E9E9" width="100pt" height="100pt" version="1.1" viewBox="0 0 100 100" xmlns="http://www.w3.org/2000/svg">
 <path d="m50 2c7.168 0 13 5.832 13 13s-5.832 13-13 13-13-5.832-13-13 5.832-13 13-13zm0 2c-6.0859 0-11 4.9141-11 11s4.9141 11 11 11 11-4.9141 11-11-4.9141-11-11-11zm-23.938 23.969c0.042969 0.007812 0.082031 0.015625 0.125 0.03125 0.085938 0.019531 0.17188 0.050781 0.25 0.09375l12.656 6.3125c3.4414-0.90234 7.0898-1.4062 10.906-1.4062 16.668 0 30.75 9.3398 34.188 22 3.4492-0.085938 6.8125-2.5469 6.8125-7-0.011719-0.29297 0.10547-0.57812 0.32422-0.77734 0.21484-0.19922 0.50781-0.29297 0.80078-0.25391 0.51562 0.0625 0.89453 0.51172 0.875 1.0312 0 5.3281-4.0977 8.668-8.375 8.9688 0.23828 1.3203 0.375 2.6562 0.375 4.0312 0 8.4375-4.7148 15.93-12 21.031v14.969c0 0.55078-0.44922 1-1 1h-13c-0.45703 0-0.85547-0.30859-0.96875-0.75l-2.5-8.6875c-1.8047 0.23047-3.6406 0.4375-5.5312 0.4375s-3.7266-0.20703-5.5312-0.4375l-2.5 8.6875c-0.11328 0.44141-0.51172 0.75-0.96875 0.75h-13c-0.55078 0-1-0.44922-1-1v-14.969c-4.0898-2.8633-7.3906-6.4609-9.4688-10.594l-9.7812-2.4688c-0.44141-0.11328-0.75-0.51562-0.75-0.96875v-13c0-0.45703 0.30859-0.85547 0.75-0.96875l9.2188-2.3125c1.9805-4.5273 5.3828-8.4883 9.7188-11.594l-1.6875-11c-0.050781-0.30469 0.042969-0.61328 0.25-0.83594 0.20703-0.22656 0.50781-0.34375 0.8125-0.32031zm1.2188 2.7812l1.5 9.6562c0.050781 0.37891-0.11719 0.75391-0.4375 0.96875-4.4727 3.0703-7.8594 7.0625-9.7188 11.562-0.12109 0.29688-0.375 0.51562-0.6875 0.59375l-8.9375 2.25v11.438l9.4375 2.375c0.28516 0.070312 0.52734 0.26562 0.65625 0.53125 1.9688 4.1289 5.2539 7.7812 9.4688 10.625 0.27734 0.1875 0.44141 0.50391 0.4375 0.84375v14.406h11.25l2.5-8.75c0.13672-0.49219 0.62109-0.80078 1.125-0.71875 1.9922 0.29688 4.0273 0.46875 6.125 0.46875s4.1328-0.17188 6.125-0.46875c0.50391-0.082031 0.98828 0.22656 1.125 0.71875l2.5 8.75h11.25v-14.406c-0.007812-0.33984 0.16016-0.65625 0.4375-0.84375 7.1211-4.8047 11.562-11.879 11.562-19.75 0-14.23-14.652-26-33-26-3.7852 0-7.4297 0.48047-10.812 1.4062-0.23047 0.058594-0.47266 0.039062-0.6875-0.0625zm22.719 9.25c4.4531 0 8.6641 0.82422 12.375 2.3125 0.26953 0.078125 0.49609 0.26953 0.61719 0.52344 0.12109 0.25391 0.13281 0.55078 0.023437 0.8125-0.10547 0.26172-0.31641 0.46484-0.58203 0.5625-0.26562 0.097656-0.55859 0.074218-0.80859-0.054688-3.4648-1.3906-7.4219-2.1562-11.625-2.1562-2.7148 0-5.3047 0.32812-7.75 0.9375-0.25781 0.066406-0.53125 0.03125-0.76172-0.10547-0.23047-0.13281-0.39844-0.35547-0.46484-0.61328-0.066407-0.25781-0.027344-0.53125 0.10937-0.76172 0.13672-0.22656 0.35938-0.39453 0.61719-0.45703 2.6016-0.64844 5.3711-1 8.25-1zm-20 12c1.6562 0 3 1.3438 3 3s-1.3438 3-3 3-3-1.3438-3-3 1.3438-3 3-3z"/>
</svg>
