<?xml version="1.0" encoding="UTF-8"?>
<svg fill="#45A8E6" width="100pt" height="100pt" version="1.1" viewBox="0 0 100 100" xmlns="http://www.w3.org/2000/svg">
 <g fill-rule="evenodd">
  <path d="m91.668 75c0 9.2031-7.4648 16.668-16.668 16.668s-16.668-7.4648-16.668-16.668 7.4648-16.668 16.668-16.668 16.668 7.4648 16.668 16.668zm8.332 0c0-13.805-11.195-25-25-25s-25 11.195-25 25 11.195 25 25 25 25-11.195 25-25z"/>
  <path d="m70.656 73.547c-1.6289-1.625-4.2656-1.625-5.8945 0-1.625 1.6289-1.625 4.2656 0 5.8945l6.25 6.25c1.8594 1.8594 4.9531 1.5508 6.4141-0.63672l8.332-12.5c1.2773-1.9141 0.76172-4.5-1.1562-5.7773-1.9141-1.2773-4.5-0.75781-5.7773 1.1562l-5.5117 8.2695z"/>
  <path d="m4.168 33.332h91.664c2.3008 0 4.168-1.8633 4.168-4.1641v-25c0-2.3008-1.8672-4.168-4.168-4.168h-91.664c-2.3008 0-4.168 1.8672-4.168 4.168v25c0 2.3008 1.8672 4.1641 4.168 4.1641zm4.1641-25h83.336v16.668h-83.336z"/>
  <path d="m20.832 16.668c0-2.3008-1.8672-4.168-4.1641-4.168-2.3008 0-4.168 1.8672-4.168 4.168 0 2.2969 1.8672 4.1641 4.168 4.1641 2.2969 0 4.1641-1.8672 4.1641-4.1641"/>
  <path d="m33.332 16.668c0-2.3008-1.8672-4.168-4.1641-4.168-2.3008 0-4.168 1.8672-4.168 4.168 0 2.2969 1.8672 4.1641 4.168 4.1641 2.2969 0 4.1641-1.8672 4.1641-4.1641"/>
  <path d="m45.832 16.668c0-2.3008-1.8672-4.168-4.1641-4.168-2.3008 0-4.168 1.8672-4.168 4.168 0 2.2969 1.8672 4.1641 4.168 4.1641 2.2969 0 4.1641-1.8672 4.1641-4.1641"/>
  <path d="m0 29.168v66.664c0 2.3008 1.8672 4.168 4.168 4.168h70.832v-8.332c-9.2031 0-16.668-7.4648-16.668-16.668s7.4648-16.668 16.668-16.668 16.668 7.4648 16.668 16.668h8.332v-45.832c0-2.3008-1.8672-4.168-4.168-4.168h-91.664c-2.3008 0-4.168 1.8672-4.168 4.168zm91.668 4.1641v23.035c-4.4258-3.9609-10.266-6.3672-16.668-6.3672-13.805 0-25 11.195-25 25 0 6.4023 2.4062 12.242 6.3672 16.668h-48.035v-58.336z"/>
  <path d="m20.832 50h12.5c2.3008 0 4.168-1.8672 4.168-4.168s-1.8672-4.1641-4.168-4.1641h-12.5c-2.3008 0-4.1641 1.8633-4.1641 4.1641s1.8633 4.168 4.1641 4.168z"/>
  <path d="m50 50h12.5c2.3008 0 4.168-1.8672 4.168-4.168s-1.8672-4.1641-4.168-4.1641h-12.5c-2.3008 0-4.168 1.8633-4.168 4.1641s1.8672 4.168 4.168 4.168z"/>
  <path d="m20.832 66.668h20.836c2.3008 0 4.1641-1.8672 4.1641-4.168s-1.8633-4.168-4.1641-4.168h-20.836c-2.3008 0-4.1641 1.8672-4.1641 4.168s1.8633 4.168 4.1641 4.168z"/>
  <path d="m20.832 83.332h12.5c2.3008 0 4.168-1.8633 4.168-4.1641s-1.8672-4.168-4.168-4.168h-12.5c-2.3008 0-4.1641 1.8672-4.1641 4.168s1.8633 4.1641 4.1641 4.1641z"/>
 </g>
</svg>
