<svg fill="#45A8E5" xmlns="http://www.w3.org/2000/svg" xmlns:xlink="http://www.w3.org/1999/xlink" version="1.2" baseProfile="tiny" x="0px" y="0px" viewBox="0 0 100 100" xml:space="preserve"><path d="M92.5,5h-85C6.119,5,5,6.119,5,7.5v70C5,78.881,6.119,80,7.5,80h26.464l14.268,14.268C48.72,94.756,49.36,95,50,95   s1.28-0.244,1.768-0.732L66.036,80H92.5c1.381,0,2.5-1.119,2.5-2.5v-70C95,6.119,93.881,5,92.5,5z M90,75H65   c-0.663,0-1.299,0.263-1.768,0.732L50,88.964L36.768,75.732C36.299,75.263,35.663,75,35,75H10V10h80V75z"></path><path d="M51.996,67.669C54.609,69.194,57.59,70,60.616,70c4.569,0,8.866-1.779,12.098-5.011C75.8,61.902,77.5,57.797,77.5,53.432   V52.5c0-1.042-0.646-1.975-1.622-2.341l-13.333-5c-0.92-0.345-1.953-0.12-2.646,0.573l-3.525,3.525   c-5.078-3.648-9.483-8.053-13.131-13.131l3.525-3.525c0.693-0.693,0.917-1.728,0.573-2.646l-5-13.333   C41.975,15.646,41.042,15,40,15h-0.932c-4.365,0-8.47,1.7-11.557,4.787c0,0,0,0,0,0c-3.231,3.231-5.01,7.528-5.01,12.097   c0,3.026,0.806,6.007,2.33,8.62C31.378,51.729,40.771,61.122,51.996,67.669z M31.046,23.323c1.956-1.956,4.499-3.109,7.231-3.296   l3.816,10.177l-3.861,3.862c-0.843,0.842-0.974,2.163-0.313,3.154c4.608,6.912,10.448,12.752,17.36,17.36   c0.991,0.662,2.312,0.53,3.154-0.313l3.862-3.861l10.177,3.816c-0.187,2.732-1.34,5.276-3.295,7.231   C66.891,63.741,63.85,65,60.616,65c-2.142,0-4.251-0.57-6.101-1.649c-10.481-6.114-19.252-14.885-25.366-25.366   c-1.079-1.849-1.649-3.959-1.649-6.101C27.5,28.651,28.759,25.61,31.046,23.323z"></path></svg>