<?xml version="1.0" encoding="UTF-8"?>
<svg width="16px" height="20px" viewBox="0 0 16 20" version="1.1" xmlns="http://www.w3.org/2000/svg" xmlns:xlink="http://www.w3.org/1999/xlink">
    <!-- Generator: sketchtool 41.1 (35376) - http://www.bohemiancoding.com/sketch -->
    <title>2406D8FA-24AD-4AAC-8A6A-CBBABDA383E7</title>
    <desc>Created with sketchtool.</desc>
    <defs></defs>
    <g id="Symbols" stroke="none" stroke-width="1" fill="none" fill-rule="evenodd">
        <g id="Logged-In" transform="translate(-110.000000, -58.000000)">
            <g id="Finacial-Plan-Button" transform="translate(102.000000, 54.000000)">
                <g id="Layer_1" transform="translate(8.000000, 4.000000)">
                    <g id="Group">
                        <path d="M12.6871158,17.2708758 L12.7923789,17.1812627 C12.8092211,17.1690428 12.8218526,17.1568228 12.8344842,17.1405295 C12.8892211,17.0794297 14.1186947,15.706721 14.5860632,14.6517312 L14.8092211,14.6517312 C15.4450105,14.6517312 15.9629053,14.1507128 15.9629053,13.5356415 L15.9629053,11.7718941 C15.9629053,11.1568228 15.4450105,10.6558045 14.8092211,10.6558045 L14.5608,10.6558045 C14.1776421,9.6904277 13.5250105,8.81873727 12.6576421,8.10997963 C12.5313263,7.67413442 12.6239579,7.20977597 12.9397474,6.72505092 C13.1165895,6.45213849 13.1165895,6.10997963 12.9355368,5.83706721 C12.7544842,5.56415479 12.4386947,5.41751527 12.1060632,5.45824847 C10.8892211,5.60488798 10.1608,6.13849287 9.73553684,6.63543788 C9.33553684,6.52953157 8.92290526,6.44806517 8.50606316,6.40325866 C8.27869474,6.37881874 8.06816842,6.53360489 8.04290526,6.75763747 C8.01764211,6.97759674 8.17764211,7.18126273 8.40922105,7.20570265 C8.87237895,7.2586558 9.33132632,7.35641548 9.76922105,7.49083503 C9.94606316,7.54378819 10.1355368,7.47861507 10.2408,7.33197556 C10.5271158,6.92057026 11.1039579,6.39918534 12.2071158,6.26476578 C12.2155368,6.26476578 12.2239579,6.26476578 12.2323789,6.27698574 C12.2408,6.2892057 12.2365895,6.29735234 12.2323789,6.30142566 C11.7944842,6.97759674 11.6639579,7.68228106 11.8576421,8.34215886 C11.8618526,8.46028513 11.9165895,8.57026477 12.0134316,8.64358452 C12.9018526,9.33604888 13.5460632,10.2158859 13.8744842,11.1894094 C13.9292211,11.3564155 14.0934316,11.4663951 14.2702737,11.4663951 L14.2702737,11.4663951 L14.8092211,11.4663951 C14.9860632,11.4663951 15.1292211,11.604888 15.1292211,11.7759674 L15.1292211,13.5397149 C15.1292211,13.7107943 14.9860632,13.8492872 14.8092211,13.8492872 L14.2997474,13.8492872 C14.1186947,13.8492872 13.9544842,13.9633401 13.8997474,14.1344196 C13.6639579,14.8798371 12.6281684,16.1425662 12.2239579,16.5947047 L12.1313263,16.6720978 C11.2639579,17.4297352 11.1755368,18.3258656 11.1713263,18.5947047 L11.1713263,19.1608961 L8.76711579,19.1608961 L8.76711579,18.6150713 C8.76711579,18.5010183 8.71658947,18.3910387 8.62816842,18.3136456 C8.53974737,18.2362525 8.42185263,18.1995927 8.30395789,18.2118126 C7.68922105,18.2729124 7.07027368,18.2647658 6.47237895,18.1873727 C6.35448421,18.1710794 6.23237895,18.2077393 6.14395789,18.2851324 C6.05132632,18.3625255 6.0008,18.4725051 6.0008,18.5906314 L6.0008,19.1568228 L3.59658947,19.1568228 L3.59658947,18.9979633 L3.59658947,18.9816701 C3.57553684,18.5539715 3.43658947,17.4704684 2.5608,16.598778 C2.14816842,16.1873727 1.77764211,15.6415479 1.45764211,14.9816701 C1.45343158,14.9775967 1.45343158,14.9735234 1.44922105,14.9653768 C1.25974737,14.6150713 1.11658947,14.2443992 1.01974737,13.8533605 L1.01553684,13.8370672 C1.01553684,13.8329939 1.01132632,13.8289206 1.01132632,13.8248473 C0.859747368,13.3360489 0.876589474,12.7209776 0.876589474,12.7169043 L0.876589474,12.7046843 C0.876589474,12.4358452 0.901852632,12.1629328 0.943957895,11.898167 C0.981852632,11.6782077 0.830273684,11.4704684 0.602905263,11.4338086 C0.375536842,11.3971487 0.1608,11.5437882 0.122905263,11.7637475 C0.0681684211,12.0692464 0.0429052632,12.3828921 0.0429052632,12.6965377 C0.0386947368,12.7780041 0.0302736842,13.4623218 0.211326316,14.0529532 L0.211326316,14.0529532 C0.3208,14.4887984 0.489221053,14.9164969 0.703957895,15.3238289 C1.05764211,16.0651731 1.48290526,16.6802444 1.95869474,17.1568228 C2.62816842,17.8248473 2.74185263,18.6639511 2.75869474,19.00611 L2.75869474,19.1731161 C2.75869474,19.1894094 2.75869474,19.2016293 2.76290526,19.2260692 C2.79237895,19.6374745 3.15027368,19.9633401 3.57553684,19.9633401 L6.01343158,19.9633401 C6.46395789,19.9633401 6.83027368,19.6089613 6.83027368,19.1731161 L6.83027368,19.0386965 C7.19658947,19.0672098 7.55869474,19.0712831 7.92922105,19.0549898 L7.92922105,19.1731161 C7.92922105,19.6089613 8.29553684,19.9633401 8.74606316,19.9633401 L11.1839579,19.9633401 C11.6344842,19.9633401 12.0008,19.6089613 12.0008,19.1731161 L12.0008,18.598778 C12.0092211,18.4725051 12.0555368,17.8207739 12.6871158,17.2708758 L12.6871158,17.2708758 Z" id="Shape" fill="#FFFFFF"></path>
                        <path d="M0.0765894737,7.79633401 C0.0765894737,9.62525458 1.61343158,11.1160896 3.50816842,11.1160896 C5.39869474,11.1160896 6.93974737,9.6293279 6.93974737,7.79633401 C6.93974737,5.96741344 5.40290526,4.47657841 3.50816842,4.47657841 C1.61764211,4.47657841 0.0765894737,5.96334012 0.0765894737,7.79633401 L0.0765894737,7.79633401 Z" id="Shape" fill="#3C92CA"></path>
                        <path d="M9.81974737,2.31364562 C9.81974737,1.03869654 8.74606316,0 7.42816842,0 C6.11027368,0 5.03658947,1.03869654 5.03658947,2.31364562 C5.03658947,3.5885947 6.11027368,4.62729124 7.42816842,4.62729124 C8.74606316,4.62729124 9.81974737,3.5885947 9.81974737,2.31364562 L9.81974737,2.31364562 Z" id="Shape" fill="#3C92CA"></path>
                    </g>
                </g>
            </g>
        </g>
    </g>
</svg>