<?xml version="1.0" encoding="UTF-8"?>
<svg width="47px" height="47px" viewBox="0 0 47 47" version="1.1" xmlns="http://www.w3.org/2000/svg" xmlns:xlink="http://www.w3.org/1999/xlink">
    <!-- Generator: sketchtool 41.2 (35397) - http://www.bohemiancoding.com/sketch -->
    <title>253F3F21-D1E5-4137-B9F0-CE531E94937E</title>
    <desc>Created with sketchtool.</desc>
    <defs></defs>
    <g id="Connect" stroke="none" stroke-width="1" fill="none" fill-rule="evenodd" stroke-linecap="round" stroke-linejoin="round">
        <g id="Connect-5.0---Submitted" transform="translate(-457.000000, -713.000000)" stroke="#45A8E5">
            <g id="Group-11" transform="translate(328.000000, 688.000000)">
                <g id="Group-8" transform="translate(102.000000, 0.000000)">
                    <g id="Person-Icon" transform="translate(27.000000, 25.000000)">
                        <path d="M46.2166667,46.2354667 L45.0401,41.5307667 C44.5528667,39.5818333 43.1037,38.0183 41.1986333,37.3822333 L32.9,34.4854667 C29.9625,33.2619 28.9833333,28.3535333 28.9833333,27.4354667 C30.3902,26.273 31.1375,24.4494 31.1375,22.7354667 C31.1375,21.0215333 32.1166667,20.7771333 32.1166667,20.7771333 C32.1166667,20.7771333 33.0958333,18.33 33.0958333,16.8604667 C33.0958333,16.8604667 32.8514333,15.8813 32.1166667,15.8813 L32.1166667,10.0063 C32.1166667,5.19193333 29.6679667,5.60083333 30.1583333,5.11046667 C30.1583333,3.96836667 28.9676667,0.802133333 23.5,0.802133333 C17.9305,0.802133333 14.4916667,6.49696667 14.4916667,10.0063 C14.4916667,12.8827 14.2958333,14.8410333 14.2958333,15.8813 C13.5610667,15.8813 13.3166667,16.8604667 13.3166667,16.8604667 C13.3166667,18.33 14.2958333,20.7771333 14.2958333,20.7771333 C14.2958333,20.7771333 15.275,21.0215333 15.275,22.7354667 C15.275,24.4494 17.0014667,26.4688333 18.4083333,27.6313 C18.4083333,28.5493667 17.4291667,33.2619 14.4916667,34.4854667 L5.80136667,37.3822333 C3.8963,38.0183 2.44713333,39.5818333 1.9599,41.5307667 L0.783333333,46.2354667" id="Stroke-836"></path>
                    </g>
                </g>
            </g>
        </g>
    </g>
</svg>