<?xml version="1.0" encoding="UTF-8"?>
<svg width="18px" height="18px" viewBox="0 0 18 18" version="1.1" xmlns="http://www.w3.org/2000/svg" xmlns:xlink="http://www.w3.org/1999/xlink">
    <!-- Generator: sketchtool 41.1 (35376) - http://www.bohemiancoding.com/sketch -->
    <title>A4AD4E94-D5A5-4DA1-B61A-661444AEEAD0</title>
    <desc>Created with sketchtool.</desc>
    <defs>
        <polygon id="path-1" points="0.00215568862 18 17.9664431 18 17.9664431 0 0.00215568862 0"></polygon>
    </defs>
    <g id="Symbols" stroke="none" stroke-width="1" fill="none" fill-rule="evenodd">
        <g id="Logged-In" transform="translate(-20.000000, -1009.000000)">
            <g id="Networth" transform="translate(0.000000, 997.000000)">
                <g id="networth-icon" transform="translate(20.000000, 12.000000)">
                    <g id="Group-3">
                        <mask id="mask-2" fill="white">
                            <use xlink:href="#path-1"></use>
                        </mask>
                        <g id="Clip-2"></g>
                        <path d="M12.3066467,12.882832 L16.7822515,12.882832 L16.7822515,10.8759375 L12.3066467,10.8759375 L12.3066467,12.882832 Z M15.6997006,15.7148086 C15.6997006,16.3359492 15.1832695,16.8412852 14.5484551,16.8412852 L2.33532934,16.8412852 C1.7005509,16.8412852 1.18411976,16.3359844 1.18411976,15.7148086 L1.18411976,8.04399609 C1.18411976,7.42285547 1.70051497,6.91748437 2.33532934,6.91748437 L14.548491,6.91748437 C15.1832695,6.91748437 15.6997365,7.42282031 15.6997365,8.04399609 L15.6997365,9.71725781 L11.122491,9.71725781 L11.122491,14.0415469 L15.6997006,14.0415469 L15.6997006,15.7148086 Z M10.7090299,1.62492188 L12.0167066,3.2878125 L6.5619521,4.74760547 L10.7090299,1.62492188 Z M13.1961198,4.17346875 L13.6392216,5.75880469 L7.27217964,5.75880469 L13.1961198,4.17346875 Z M17.9664072,9.71725781 L16.8838922,9.71725781 L16.8838922,8.04399609 C16.8838922,6.89178516 16.0077126,5.93651953 14.8732096,5.781375 L14.025988,2.75013281 L13.2510898,2.95748437 L10.9252814,0 L3.5497006,5.55373828 L2.78338922,5.75880469 L2.33536527,5.75880469 C1.04766467,5.75880469 0,6.78396094 0,8.04403125 L0,15.7148086 C0,16.9748437 1.04766467,18 2.33536527,18 L14.5485269,18 C15.8362635,18 16.8839281,16.9748437 16.8839281,15.7148086 L16.8839281,14.0415469 L17.9664431,14.0415469 L17.9664431,9.71725781 L17.9664072,9.71725781 L17.9664072,9.71725781 Z" id="Fill-1" fill="#FFFFFF" mask="url(#mask-2)"></path>
                    </g>
                    <path d="M13.4554132,11.4326016 C13.7076287,11.4326016 13.9120958,11.6326758 13.9120958,11.8794727 C13.9120958,12.1262695 13.7076287,12.3263437 13.4554132,12.3263437 C13.2031976,12.3263437 12.9987305,12.1262695 12.9987305,11.8794727 C12.9987305,11.6326758 13.2031976,11.4326016 13.4554132,11.4326016" id="Fill-4" fill="#FFFFFF"></path>
                </g>
            </g>
        </g>
    </g>
</svg>